<svg width="87" height="96" viewBox="0 0 87 96" fill="none" xmlns="http://www.w3.org/2000/svg">
<rect x="21.1367" y="10.5688" width="64.2936" height="77.1523" rx="1" stroke="#373737" stroke-width="2"/>
<path d="M71.868 33.056L57.4986 35.2247L59.6747 22.1753" stroke="#373737" stroke-width="2"/>
<circle cx="57.5" cy="34.5" r="13.5" stroke="#373737" stroke-width="2"/>
<line x1="31.2207" y1="61.6104" x2="71.7763" y2="61.6104" stroke="#373737" stroke-width="2"/>
<line x1="31.2207" y1="75" x2="71.7763" y2="75" stroke="#373737" stroke-width="2"/>
<path d="M0 8.80734L47.5596 0V96L0 87.1927V8.80734Z" fill="#DC6848"/>
<path d="M0 8.80734L47.5596 0V96L0 87.1927V8.80734Z" fill="#F46F52"/>
<path d="M15.3441 37.1836V58.1836H17.7441V51.5536H23.2341C28.4241 51.5536 31.4241 48.8836 31.4241 44.2336C31.4241 39.7636 28.4241 37.1836 23.2341 37.1836H15.3441ZM17.7441 39.4936H23.1441C26.9241 39.4936 29.1141 41.1136 29.1141 44.2936C29.1141 47.5636 26.9241 49.2436 23.1441 49.2436H17.7441V39.4936Z" fill="white"/>
</svg>
